# xmcd
#
# Track frame offsets: 
#        187
#        23815
#        38900
#        53602
#        70470
#        86925
#        104750
#        123187
#        138530
#        155125
#        171237
#        185665
#        203975
#        220467
#
# Disc length: 3191 seconds
#
# Revision: 7
# Processed by: cddbd v1.5.2PL0 Copyright (c) Steve Scherf et al.
# Submitted via: ExactAudioCopy v1.0b1
#
DISCID=db0c750e
DTITLE=アン・ルイス - ALL BEST SONGS
DYEAR=1986
DGENRE=JPop
TTITLE0=六本木心中
TTITLE1=薔薇の奇蹟
TTITLE2=I Love Youより愛してる
TTITLE3=LUV-YA
TTITLE4=ラ・セゾン
TTITLE5=IN PLEASURE
TTITLE6=恋のブギ・ウギ・トレイン
TTITLE7=グッバイ・マイ・ラブ
TTITLE8=女はそれを我慢できない
TTITLE9=甘い予感
TTITLE10=湘南の男たち
TTITLE11=グッバイ・ボーイ
TTITLE12=シャンプー
TTITLE13=リンダ
EXTD=YEAR: 1986
EXTT0=
EXTT1=
EXTT2=
EXTT3=
EXTT4=
EXTT5=
EXTT6=
EXTT7=
EXTT8=
EXTT9=
EXTT10=
EXTT11=
EXTT12=
EXTT13=
PLAYORDER=
